<?xml version="1.0" encoding="UTF-8" standalone="no"?>
<!-- Created with Inkscape (http://www.inkscape.org/) -->

<svg
   xmlns:dc="http://purl.org/dc/elements/1.1/"
   xmlns:cc="http://creativecommons.org/ns#"
   xmlns:rdf="http://www.w3.org/1999/02/22-rdf-syntax-ns#"
   xmlns:svg="http://www.w3.org/2000/svg"
   xmlns="http://www.w3.org/2000/svg"
   xmlns:sodipodi="http://sodipodi.sourceforge.net/DTD/sodipodi-0.dtd"
   xmlns:inkscape="http://www.inkscape.org/namespaces/inkscape"
   width="512"
   height="512"
   id="svg2"
   version="1.1"
   inkscape:version="0.48.4 r9939"
   sodipodi:docname="elapse-icon.svg"
   inkscape:export-filename="/home/simon/Documents/PhD/Software/elapse/elapse-client/app/img/elapse-icon-256.png"
   inkscape:export-xdpi="45"
   inkscape:export-ydpi="45">
  <defs
     id="defs4">
    <clipPath
       clipPathUnits="userSpaceOnUse"
       id="clipPath3862">
      <path
         inkscape:connector-curvature="0"
         id="path3864"
         d="m 349.90638,210.92396 c -14.79337,-1.17393 -29.81082,-8.80523 -41.52589,-21.10189 -6.29025,-6.60252 -6.29128,-7.36419 -0.0193,-13.9784 10.57028,-11.1468 23.83066,-18.4645 37.50864,-20.69903 4.28981,-0.7008 12.44725,-0.69893 16.76657,0.003 13.8644,2.25585 27.19438,9.68332 37.94906,21.14522 3.5663,3.80082 4.27542,4.88608 4.27702,6.54578 10e-4,1.53638 -1.11253,3.17868 -4.73651,6.98258 -14.10291,14.80305 -32.44937,22.51205 -50.21972,21.10188 z"
         style="fill:#000000"
         sodipodi:nodetypes="cssscscscc" />
    </clipPath>
  </defs>
  <sodipodi:namedview
     id="base"
     pagecolor="#ffffff"
     bordercolor="#666666"
     borderopacity="1.0"
     inkscape:pageopacity="0.0"
     inkscape:pageshadow="2"
     inkscape:zoom="1.979899"
     inkscape:cx="273.89157"
     inkscape:cy="301.63765"
     inkscape:document-units="px"
     inkscape:current-layer="layer1"
     showgrid="false"
     inkscape:window-width="1680"
     inkscape:window-height="1030"
     inkscape:window-x="-2"
     inkscape:window-y="-3"
     inkscape:window-maximized="1" />
  <metadata
     id="metadata7">
    <rdf:RDF>
      <cc:Work
         rdf:about="">
        <dc:format>image/svg+xml</dc:format>
        <dc:type
           rdf:resource="http://purl.org/dc/dcmitype/StillImage" />
        <dc:title />
      </cc:Work>
    </rdf:RDF>
  </metadata>
  <g
     inkscape:label="Layer 1"
     inkscape:groupmode="layer"
     id="layer1"
     transform="translate(0,-540.36218)">
    <path
       sodipodi:type="inkscape:offset"
       inkscape:radius="10.101525"
       inkscape:original="M 237.40625 28.4375 L 237.40625 45.09375 L 274 45.09375 L 274 28.4375 L 237.40625 28.4375 z M 176.5 38.4375 L 143.1875 53.59375 L 150.0625 68.71875 L 183.375 53.5625 L 176.5 38.4375 z M 332.5625 38.4375 L 325.65625 53.5625 L 359 68.71875 L 365.875 53.59375 L 332.5625 38.4375 z M 254.84375 52.8125 C 134.9819 52.8125 61.5 134.00105 61.5 273.96875 C 61.5 407.74995 134.21605 484.3125 252.53125 484.3125 C 346.10087 484.3125 421.87135 441.78247 445.84375 359.8125 L 339.125 359.8125 C 329.84535 389.97125 295.8134 401.5625 256.375 401.5625 C 205.33705 401.5625 172.87445 378.3842 169.78125 297.1875 L 449.71875 297.1875 L 450.5 284.03125 C 450.5 140.19706 377.79881 52.8125 254.84375 52.8125 z M 100.3125 86.1875 L 76.90625 114.28125 L 89.6875 124.9375 L 113.09375 96.84375 L 100.3125 86.1875 z M 408.71875 86.1875 L 395.9375 96.84375 L 419.375 124.9375 L 432.15625 114.28125 L 408.71875 86.1875 z "
       style="font-size:144px;font-style:normal;font-variant:normal;font-weight:bold;font-stretch:normal;text-align:start;line-height:125%;letter-spacing:0px;word-spacing:0px;writing-mode:lr-tb;text-anchor:start;fill:#ffffff;fill-opacity:1;stroke:#000b33;font-family:TeX Gyre Heros;-inkscape-font-specification:TeX Gyre Heros Bold;stroke-opacity:1;stroke-width:5;stroke-miterlimit:4;stroke-dasharray:none"
       id="path3895"
       d="M 237.40625,18.34375 A 10.102535,10.102535 0 0 0 227.3125,28.4375 l 0,15.8125 c -11.90079,1.301871 -23.33229,3.441326 -34.25,6.4375 a 10.102535,10.102535 0 0 0 -0.5,-1.3125 l -6.875,-15.125 a 10.102535,10.102535 0 0 0 -13.375,-5 L 139,44.40625 a 10.102535,10.102535 0 0 0 -5,13.375 l 6.875,15.125 a 10.102535,10.102535 0 0 0 0.375,0.71875 c -7.43183,4.807864 -14.50114,10.118728 -21.09375,16 A 10.102535,10.102535 0 0 0 119.5625,89.09375 L 106.78125,78.4375 A 10.102535,10.102535 0 0 0 92.5625,79.71875 L 69.15625,107.8125 a 10.102535,10.102535 0 0 0 1.28125,14.21875 l 12.78125,10.65625 a 10.102535,10.102535 0 0 0 1.34375,0.9375 c -21.704985,37.18027 -33.15625,84.55448 -33.15625,140.34375 0,68.72081 18.766616,124.06432 53.8125,162.1875 35.04588,38.12318 85.97598,58.25 147.3125,58.25 96.63057,0 177.68217,-45.17953 203,-131.75 a 10.102535,10.102535 0 0 0 -9.6875,-12.9375 l -106.71875,0 a 10.102535,10.102535 0 0 0 -9.65625,7.125 c -3.72603,12.10955 -11.9027,20.172 -24.59375,25.96875 -12.69105,5.79675 -29.77044,8.65625 -48.5,8.65625 -23.98981,0 -41.40634,-5.13923 -53.90625,-18.53125 -11.33152,-12.14024 -19.40046,-32.67702 -21.9375,-65.65625 l 269.1875,0 a 10.102535,10.102535 0 0 0 10.09375,-9.5 l 0.78125,-13.15625 a 10.102535,10.102535 0 0 0 0,-0.59375 c 0,-59.83423 -12.28125,-110.86392 -35.9375,-150.5 a 10.102535,10.102535 0 0 0 1.1875,-0.84375 L 438.625,122.03125 a 10.102535,10.102535 0 0 0 1.28125,-14.21875 L 416.46875,79.71875 A 10.102535,10.102535 0 0 0 402.25,78.4375 l -12.78125,10.65625 a 10.102535,10.102535 0 0 0 -0.75,0.6875 C 382.13236,83.918171 375.1566,78.529562 367.75,73.71875 a 10.102535,10.102535 0 0 0 0.4375,-0.8125 l 6.875,-15.125 a 10.102535,10.102535 0 0 0 -5,-13.375 L 336.75,29.25 a 10.102535,10.102535 0 0 0 -13.375,5 l -6.90625,15.125 a 10.102535,10.102535 0 0 0 -0.5,1.34375 c -10.18867,-2.818344 -20.81405,-4.928911 -31.875,-6.25 l 0,-16.03125 A 10.102535,10.102535 0 0 0 274,18.34375 l -36.59375,0 z"
       transform="translate(0,540.36218)" />
    <path
       style="font-size:144px;font-style:normal;font-variant:normal;font-weight:bold;font-stretch:normal;text-align:start;line-height:125%;letter-spacing:0px;word-spacing:0px;writing-mode:lr-tb;text-anchor:start;fill:#000b33;fill-opacity:1;stroke:none;font-family:TeX Gyre Heros;-inkscape-font-specification:TeX Gyre Heros Bold"
       d="M 254.84375 52.8125 C 134.9819 52.8125 61.5 134.00105 61.5 273.96875 C 61.5 407.74995 134.21605 484.3125 252.53125 484.3125 C 346.10087 484.3125 421.87135 441.78247 445.84375 359.8125 L 339.125 359.8125 C 329.84535 389.97125 295.8134 401.5625 256.375 401.5625 C 205.33705 401.5625 172.87445 378.3842 169.78125 297.1875 L 449.71875 297.1875 L 450.5 284.03125 C 450.5 140.19706 377.79881 52.8125 254.84375 52.8125 z M 255.9375 121.03125 C 263.63577 121.03258 271.35108 121.47726 276.6875 122.34375 C 310.94581 127.91785 343.89443 146.27187 370.46875 174.59375 C 379.28094 183.98542 381.02727 186.64894 381.03125 190.75 C 381.03325 194.54632 378.29842 198.60072 369.34375 208 C 334.49607 244.57769 289.15974 263.64074 245.25 260.15625 C 208.69623 257.25553 171.57242 238.38447 142.625 208 C 127.08207 191.68544 127.09575 189.81219 142.59375 173.46875 C 168.71245 145.92549 201.45231 127.83393 235.25 122.3125 C 240.54996 121.44669 248.23923 121.02992 255.9375 121.03125 z "
       id="path3838"
       transform="translate(0,540.36218)" />
    <path
       style="fill:#000b33;fill-opacity:1"
       d="m 244.90514,802.67039 c -37.6887,-2.99078 -75.94826,-22.43286 -105.79445,-53.76073 -16.02552,-16.8211 -16.02816,-18.76157 -0.0491,-35.61245 26.92964,-28.39843 60.71279,-47.04155 95.55984,-52.73441 10.92904,-1.78538 31.71155,-1.78063 42.71577,0.006 35.32198,5.74715 69.28246,24.66993 96.68189,53.87115 9.08576,9.68326 10.89236,12.44813 10.89646,16.67652 0.003,3.91419 -2.83438,8.09822 -12.06711,17.78934 -35.92962,37.71336 -82.67045,57.3534 -127.94352,53.76074 z m 19.19083,-23.96236 c 16.90836,-3.21275 31.39195,-17.3867 35.79789,-35.0325 1.33264,-5.33723 1.5128,-18.88784 0.32513,-24.44225 -2.65397,-12.4105 -12.67209,-25.67198 -23.67221,-31.33624 -7.44178,-3.83198 -13.00063,-5.25132 -20.56692,-5.25132 -19.81203,0 -37.02111,13.39809 -43.44116,33.82097 -1.84871,5.88107 -2.24179,17.74658 -0.84747,25.58231 3.07466,17.27893 18.77095,33.33541 35.80605,36.62778 7.4006,1.43028 9.21781,1.43376 16.59885,0.032 z m -18.16258,-17.15766 c -12.36385,-4.69752 -19.78973,-16.22272 -20.10737,-31.20731 -0.0966,-4.55408 0.18571,-6.5103 1.07648,-7.45955 1.08238,-1.15359 1.44186,-0.82269 3.47446,3.19843 3.79986,7.51734 9.05172,9.82103 17.01529,7.46358 4.27108,-1.26434 8.72833,-7.39768 9.20312,-12.66392 0.70436,-7.81266 -4.51883,-15.01751 -11.92241,-16.44583 -7.77368,-1.49975 2.04561,-5.57565 12.53758,-5.20428 6.00513,0.21243 7.92241,0.64924 11.85545,2.7 5.98594,3.12128 11.29454,8.7847 14.25222,15.20491 2.12483,4.61218 2.32533,5.81106 2.32527,13.89962 -1e-4,8.67573 -0.0618,8.97477 -3.08563,15.0073 -3.4362,6.85487 -7.35756,10.89863 -13.85323,14.28563 -5.78302,3.01547 -16.53186,3.59204 -22.77123,1.22142 z m -35.98493,8.95126 c -4.79958,-6.29648 -8.84881,-14.94487 -11.35684,-24.25641 -1.9289,-7.16116 -2.10281,-8.88141 -1.70464,-16.86106 0.72592,-14.54632 5.18369,-27.47879 13.01206,-37.74902 1.85054,-2.42782 3.36465,-4.79567 3.36465,-5.26192 0,-1.80445 -18.03106,6.6676 -29.3234,13.77789 -8.88709,5.59581 -20.81692,15.32227 -28.83769,23.51155 l -7.09951,7.24867 4.35072,4.7729 c 5.65146,6.19993 18.48805,17.24961 26.49976,22.81095 11.3491,7.878 33.63584,19.07906 34.26179,17.21958 0.13603,-0.40386 -1.28916,-2.74978 -3.1669,-5.21313 z m 107.73216,-2.66841 c 14.7981,-7.93947 31.60438,-20.8269 41.92495,-32.14899 l 4.35072,-4.7729 -7.01429,-7.16199 c -11.93275,-12.18412 -27.03707,-23.37683 -41.56516,-30.80103 -8.91162,-4.55402 -16.68115,-7.61648 -16.68115,-6.57509 0,0.46625 1.60843,2.95227 3.57421,5.5245 7.71741,10.09793 11.99673,22.79635 12.7633,37.87377 0.43318,8.51954 0.29473,9.89054 -1.70426,16.86106 -2.75419,9.60466 -6.49754,17.57322 -11.05904,23.54184 -1.96578,2.5722 -3.57421,5.05822 -3.57421,5.52444 0,1.19627 9.19651,-2.61391 18.98493,-7.86561 z"
       id="path2996"
       inkscape:connector-curvature="0" />
    <rect
       style="fill:#000b33;fill-opacity:1;stroke:#000000;stroke-width:0.49999997000000002;stroke-linecap:square;stroke-miterlimit:4;stroke-opacity:1;stroke-dasharray:none;stroke-dashoffset:0"
       id="rect3793"
       width="36.602421"
       height="16.637463"
       x="237.40915"
       y="568.81268" />
    <rect
       y="389.0816"
       x="542.40918"
       height="16.637463"
       width="36.602421"
       id="rect3795"
       style="fill:#000b33;fill-opacity:1;stroke:#000000;stroke-width:0.49999993999999998;stroke-linecap:square;stroke-miterlimit:4;stroke-opacity:1;stroke-dasharray:none;stroke-dashoffset:0"
       transform="matrix(0.91020389,0.41416045,-0.41416045,0.91020389,0,0)"
       inkscape:transform-center-x="3.3252398"
       inkscape:transform-center-y="-5.0898992" />
    <rect
       inkscape:transform-center-y="-6.0287772"
       inkscape:transform-center-x="0.78631196"
       transform="matrix(0.64021264,0.76819775,-0.76819775,0.64021264,0,0)"
       style="fill:#000b33;fill-opacity:1;stroke:#000000;stroke-width:0.49999997000000002;stroke-linecap:square;stroke-miterlimit:4;stroke-opacity:1;stroke-dasharray:none;stroke-dashoffset:0"
       id="rect3797"
       width="36.602421"
       height="16.637463"
       x="742.97614"
       y="87.138542" />
    <rect
       inkscape:transform-center-y="-5.0899018"
       inkscape:transform-center-x="-3.3252411"
       transform="matrix(-0.91020389,0.41416045,0.41416045,0.91020389,0,0)"
       style="fill:#000b33;fill-opacity:1;stroke:#000000;stroke-width:0.49999993999999998;stroke-linecap:square;stroke-miterlimit:4;stroke-opacity:1;stroke-dasharray:none;stroke-dashoffset:0"
       id="rect3799"
       width="36.602421"
       height="16.637463"
       x="79.070946"
       y="599.90955" />
    <rect
       y="478.18881"
       x="417.07654"
       height="16.637463"
       width="36.602421"
       id="rect3801"
       style="fill:#000b33;fill-opacity:1;stroke:#000000;stroke-width:0.49999997000000002;stroke-linecap:square;stroke-miterlimit:4;stroke-opacity:1;stroke-dasharray:none;stroke-dashoffset:0"
       transform="matrix(-0.64021264,0.76819775,0.76819775,0.64021264,0,0)"
       inkscape:transform-center-x="-0.78631717"
       inkscape:transform-center-y="-6.0287748" />
  </g>
</svg>
